<?xml version="1.0" ?><svg enable-background="new 0 0 32 32" id="Outline" version="1.1" viewBox="0 0 32 32" xml:space="preserve" xmlns="http://www.w3.org/2000/svg" xmlns:xlink="http://www.w3.org/1999/xlink"><title/><desc/><g><rect height="2" width="2" x="15" y="22"/><rect height="2" width="2" x="11" y="22"/><rect height="2" width="2" x="19" y="22"/><rect height="2" width="2" x="11" y="26"/><rect height="2" width="2" x="19" y="26"/><rect height="2" width="2" x="15" y="26"/><rect height="2" width="2" x="11" y="30"/><rect height="2" width="2" x="15" y="30"/><rect height="2" width="2" x="19" y="30"/><g><path d="M23,20h-2v-2h2c2.757,0,5-2.243,5-5c0-2.514-1.876-4.646-4.364-4.958c-0.41-0.051-0.746-0.349-0.846-0.75    C22.011,4.176,19.219,2,16,2c-3.86,0-7,3.14-7,7c0,0.552-0.448,1-1,1c-2.206,0-4,1.794-4,4s1.794,4,4,4h7v2H8    c-3.309,0-6-2.691-6-6c0-2.984,2.19-5.466,5.047-5.924C7.511,3.545,11.349,0,16,0c3.916,0,7.342,2.507,8.547,6.173    C27.698,6.882,30,9.706,30,13C30,16.86,26.859,20,23,20z"/><rect height="2" width="2" x="17" y="18"/></g></g></svg>