<?xml version="1.0" ?><svg enable-background="new 0 0 32 32" id="Outline" version="1.1" viewBox="0 0 32 32" xml:space="preserve" xmlns="http://www.w3.org/2000/svg" xmlns:xlink="http://www.w3.org/1999/xlink"><title/><desc/><g><path d="M8,22c-1.654,0-3,1.346-3,3s1.346,3,3,3s3-1.346,3-3S9.654,22,8,22z M8,26c-0.551,0-1-0.448-1-1s0.449-1,1-1s1,0.448,1,1   S8.551,26,8,26z"/><path d="M16,26c-1.654,0-3,1.346-3,3s1.346,3,3,3s3-1.346,3-3S17.654,26,16,26z M16,30c-0.551,0-1-0.448-1-1s0.449-1,1-1   s1,0.448,1,1S16.551,30,16,30z"/><path d="M24,24c-1.654,0-3,1.346-3,3s1.346,3,3,3s3-1.346,3-3S25.654,24,24,24z M24,28c-0.551,0-1-0.448-1-1s0.449-1,1-1   s1,0.448,1,1S24.551,28,24,28z"/><path d="M27.399,10.168c-0.895-2.037-2.711-3.491-4.851-3.977C21.347,2.516,17.922,0,14,0C9.349,0,5.511,3.546,5.047,8.075   C2.19,8.533,0,11.016,0,14c0,3.309,2.691,6,6,6h5.026c0.914,1.207,2.348,2,3.974,2h4v-2h-4c-1.654,0-3-1.346-3-3s1.346-3,3-3   c0.552,0,1-0.447,1-1c0-2.757,2.243-5,5-5c2.139,0,4.037,1.355,4.723,3.372c0.123,0.36,0.439,0.62,0.816,0.669   C28.512,12.3,30,14.002,30,16c0,2.206-1.794,4-4,4h-1v2h1c3.309,0,6-2.691,6-6C32,13.207,30.061,10.8,27.399,10.168z    M14.059,12.089C11.75,12.53,10,14.564,10,17c0,0.342,0.035,0.677,0.101,1H6c-2.206,0-4-1.794-4-4s1.794-4,4-4c0.552,0,1-0.447,1-1   c0-3.859,3.14-7,7-7c2.762,0,5.2,1.608,6.331,4.032C17.086,6.341,14.479,8.876,14.059,12.089z"/><rect height="2" width="2" x="21" y="20"/></g></svg>